<svg xmlns="http://www.w3.org/2000/svg" viewBox="0 0 500 500">
 <defs>
 <linearGradient id="flowGradient" x1="0%" y1="0%" x2="100%" y2="100%">
 <stop offset="0%" stop-color="#8B5CF6" />
 <stop offset="50%" stop-color="#EC4899" />
 <stop offset="100%" stop-color="#3B82F6" />
 </linearGradient>
 <linearGradient id="bgGradient" x1="0%" y1="0%" x2="100%" y2="100%">
 <stop offset="0%" stop-color="#1E293B" />
 <stop offset="100%" stop-color="#0F172A" />
 </linearGradient>
 </defs>
 <!-- Background -->
 <circle cx="250" cy="250" r="200" fill="url(#bgGradient)" />
 <!-- Dynamic flowing lines -->
 <g fill="none" stroke="url(#flowGradient)" stroke-width="6" opacity="0.7">
 <path d="M130,200 C180,150 200,250 250,250 C300,250 320,150 370,200" />
 <path d="M130,300 C180,350 200,250 250,250 C300,250 320,350 370,300" />
 <path d="M200,130 C150,180 250,200 250,250 C250,300 150,320 200,370" />
 <path d="M300,130 C350,180 250,200 250,250 C250,300 350,320 300,370" />
 <!-- Decorative wave lines -->
 <path d="M150,250 C170,230 180,270 200,250 C220,230 230,270 250,250 C270,230 280,270 300,250 C320,230 330,270 350,250"
 stroke-width="3" opacity="0.5" />
 <path d="M250,150 C230,170 270,180 250,200 C230,220 270,230 250,250 C230,270 270,280 250,300 C230,320 270,330 250,350"
 stroke-width="3" opacity="0.5" />
 </g>
 <!-- Dynamic nodes -->
 <g fill="url(#flowGradient)">
 <circle cx="250" cy="250" r="12" />
 <circle cx="200" cy="200" r="8" />
 <circle cx="300" cy="200" r="8" />
 <circle cx="200" cy="300" r="8" />
 <circle cx="300" cy="300" r="8" />
 <circle cx="180" cy="250" r="6" />
 <circle cx="320" cy="250" r="6" />
 <circle cx="250" cy="180" r="6" />
 <circle cx="250" cy="320" r="6" />
 </g>
 <!-- Dynamic flowing S symbol -->
 <g>
 <path d="M230,220 C200,210 210,170 250,170 C290,170 300,210 270,220 C240,230 240,270 280,270 C320,270 310,230 280,220"
 stroke="white" stroke-width="12" stroke-linecap="round" fill="none" />
 <!-- Decorative particle effects -->
 <circle cx="230" cy="170" r="4" fill="white" opacity="0.8" />
 <circle cx="270" cy="170" r="3" fill="white" opacity="0.6" />
 <circle cx="290" cy="190" r="2" fill="white" opacity="0.7" />
 <circle cx="230" cy="240" r="3" fill="white" opacity="0.6" />
 <circle cx="210" cy="260" r="2" fill="white" opacity="0.7" />
 <circle cx="270" cy="270" r="4" fill="white" opacity="0.8" />
 <circle cx="290" cy="250" r="3" fill="white" opacity="0.6" />
 <circle cx="230" cy="280" r="2" fill="white" opacity="0.7" />
 </g>
</svg>
